<?xml version="1.0" encoding="utf-8"?>
<!-- Generator: Adobe Illustrator 19.2.1, SVG Export Plug-In . SVG Version: 6.00 Build 0)  -->
<svg version="1.1" id="レイヤー_1" xmlns="http://www.w3.org/2000/svg" xmlns:xlink="http://www.w3.org/1999/xlink" x="0px"
	 y="0px" viewBox="0 0 217.2 102.7" style="enable-background:new 0 0 217.2 102.7;" xml:space="preserve">
<style type="text/css">
	.st0{fill:none;}
</style>
<rect x="-25.8" y="-22.3" class="st0" width="268.8" height="147.3"/>
<g>
	<g>
		<rect x="165.7" y="43.7" width="1.1" height="15.3"/>
		<path d="M192.9,43.7c-4.2,0-7.7,3.4-7.7,7.7c0,4.2,3.4,7.7,7.7,7.7c4.2,0,7.7-3.4,7.7-7.7C200.5,47.1,197.1,43.7,192.9,43.7z
			 M192.9,57.9c-3.6,0-6.6-3-6.6-6.6c0-3.6,3-6.6,6.6-6.6c3.6,0,6.6,3,6.6,6.6C199.5,55,196.5,57.9,192.9,57.9z"/>
		<path d="M112.5,43.7c-4.2,0-7.7,3.4-7.7,7.7c0,4.2,3.4,7.7,7.7,7.7c2.8,0,5.3-1.5,6.6-3.8V59h1.1v-7.7
			C120.1,47.1,116.7,43.7,112.5,43.7z M112.5,57.9c-3.6,0-6.6-3-6.6-6.6c0-3.6,3-6.6,6.6-6.6c3.6,0,6.6,3,6.6,6.6
			C119.1,55,116.1,57.9,112.5,57.9z"/>
		<path d="M93.3,43.7c-4.2,0-7.7,3.4-7.7,7.7V59h1.1v-7.7c0-3.6,3-6.6,6.6-6.6c3.6,0,6.6,3,6.6,6.6V59h1.1v-7.7
			C100.9,47.1,97.5,43.7,93.3,43.7z"/>
		<path d="M151,43.7c-4.2,0-7.7,3.4-7.7,7.7c0,4.2,3.4,7.7,7.7,7.7c2.8,0,5.3-1.5,6.6-3.8V59h1.1v-7.7
			C158.6,47.1,155.2,43.7,151,43.7z M151,57.9c-3.6,0-6.6-3-6.6-6.6c0-3.6,3-6.6,6.6-6.6c3.6,0,6.6,3,6.6,6.6
			C157.6,55,154.6,57.9,151,57.9z"/>
		<path d="M131.7,43.7c-4.2,0-7.7,3.4-7.7,7.7V59h1.1v-7.7c0-3.6,3-6.6,6.6-6.6c3.6,0,6.6,3,6.6,6.6V59h1.1v-7.7
			C139.3,47.1,135.9,43.7,131.7,43.7z"/>
		<path d="M173.8,51.3V59h1.1v-7.7c0-3.6,3-6.6,6.6-6.6h0.5v-1.1h-0.5C177.3,43.7,173.8,47.1,173.8,51.3z"/>
	</g>
	<path d="M47.9,20.2c-17.2,0-31.1,14-31.1,31.1s14,31.1,31.1,31.1S79,68.5,79,51.3S65.1,20.2,47.9,20.2z M47.9,21.2
		c5.4,0,10.5,1.4,14.9,3.9L50.4,46.1c0.2-1.1,0.3-2.3,0.3-3.4c0-9.4-7.2-17.2-16.5-18.1C38.3,22.4,43,21.2,47.9,21.2z M32.8,25.5
		c9.3,0.3,16.8,7.9,16.8,17.2c0,2.9-0.8,5.9-2.2,8.4l0,0c0,0,0,0,0,0l-0.3,0.5l0,0c-3.1,5-8.4,8-14.3,8.2V25.5z M31.8,76.7
		c-8.4-5.3-14-14.7-14-25.4s5.6-20.1,14-25.4V76.7z M32.8,60.9c4.2-0.1,8.2-1.6,11.3-4.2C40.5,62.7,35,72,32.8,75.8V60.9z
		 M47.9,81.4c-5.4,0-10.5-1.4-14.9-3.9c1.9-3.2,12.5-21.2,14.8-25.1l14.9,25.1C58.3,80,53.3,81.4,47.9,81.4z M62.9,75.8L48.8,51.9
		l14.1,0V75.8z M62.9,50.8l-14.1,0l14.1-23.9V50.8z M64,76.7V25.9c8.4,5.3,14,14.7,14,25.4S72.4,71.4,64,76.7z"/>
</g>
</svg>
